<?xml version="1.0" encoding="UTF-8" standalone="no"?>
<svg
   id="圖層_1"
   data-name="圖層 1"
   viewBox="0 0 566.94709 546.90205"
   version="1.1"
   sodipodi:docname="CSIE_Icon_white.svg"
   width="566.94708"
   height="546.90204"
   inkscape:version="1.1 (c68e22c387, 2021-05-23)"
   inkscape:export-filename="G:\我的雲端硬碟\東華帳號\歷年專案\2021專案\20210414_個人申請面試Slides\Illustrations\CSIE Logo\CSIE_Icon.png"
   inkscape:export-xdpi="96"
   inkscape:export-ydpi="96"
   xmlns:inkscape="http://www.inkscape.org/namespaces/inkscape"
   xmlns:sodipodi="http://sodipodi.sourceforge.net/DTD/sodipodi-0.dtd"
   xmlns:xlink="http://www.w3.org/1999/xlink"
   xmlns="http://www.w3.org/2000/svg"
   xmlns:svg="http://www.w3.org/2000/svg"
   xmlns:rdf="http://www.w3.org/1999/02/22-rdf-syntax-ns#"
   xmlns:cc="http://creativecommons.org/ns#"
   xmlns:dc="http://purl.org/dc/elements/1.1/">
  <metadata
     id="metadata44">
    <rdf:RDF>
      <cc:Work
         rdf:about="">
        <dc:format>image/svg+xml</dc:format>
        <dc:type
           rdf:resource="http://purl.org/dc/dcmitype/StillImage" />
        <dc:title>csie icon</dc:title>
      </cc:Work>
    </rdf:RDF>
  </metadata>
  <sodipodi:namedview
     pagecolor="#ffffff"
     bordercolor="#666666"
     borderopacity="1"
     objecttolerance="10"
     gridtolerance="10"
     guidetolerance="10"
     inkscape:pageopacity="0"
     inkscape:pageshadow="2"
     inkscape:window-width="1920"
     inkscape:window-height="1001"
     id="namedview42"
     showgrid="false"
     units="mm"
     fit-margin-top="0"
     fit-margin-left="0"
     fit-margin-right="0"
     fit-margin-bottom="0"
     inkscape:zoom="0.66410316"
     inkscape:cx="251.46696"
     inkscape:cy="227.37431"
     inkscape:current-layer="圖層_1"
     inkscape:document-rotation="0"
     inkscape:pagecheckerboard="1"
     inkscape:window-x="-9"
     inkscape:window-y="-9"
     inkscape:window-maximized="1" />
  <defs
     id="defs15">
    <style
       id="style2">.cls-1{fill:#040000;}.cls-2{fill:url(#未命名漸層_7);}.cls-3{fill:url(#未命名漸層_7-2);}.cls-4{fill:url(#未命名漸層_5);}</style>
    <linearGradient
       id="未命名漸層_7"
       x1="406.64001"
       y1="314.5"
       x2="523.37"
       y2="314.5"
       gradientUnits="userSpaceOnUse">
      <stop
         offset="0"
         stop-color="#a63f24"
         id="stop4" />
      <stop
         offset="1"
         stop-color="#5f806f"
         id="stop6" />
    </linearGradient>
    <linearGradient
       id="未命名漸層_7-2"
       x1="451.54001"
       y1="163.95"
       x2="524"
       y2="163.95"
       xlink:href="#%E6%9C%AA%E5%91%BD%E5%90%8D%E6%BC%B8%E5%B1%A4_7"
       gradientTransform="translate(0.01708693,-10.056236)" />
    <radialGradient
       id="未命名漸層_5"
       cx="-22.629999"
       cy="501.31"
       r="209.56"
       gradientTransform="matrix(0.84,0,0,0.84,248.1,45.05)"
       gradientUnits="userSpaceOnUse">
      <stop
         offset="0"
         stop-color="#5f806f"
         id="stop10" />
      <stop
         offset="1"
         stop-color="#a63f24"
         id="stop12" />
    </radialGradient>
  </defs>
  <title
     id="title17">csie icon</title>
  <path
     id="path19"
     style="fill:#eddacc;fill-opacity:1"
     d="M 429.61523 0.001953125 C 428.94523 0.019453125 428.27773 0.22460938 427.67773 0.97460938 C 429.83773 3.1146094 431.86695 5.3046875 434.12695 7.3046875 C 436.61695 9.4246875 436.32656 12.634688 437.47656 15.304688 C 440.45656 22.174687 436.06656 34.784375 429.72656 38.484375 C 428.55656 39.164375 426.17719 39.264063 426.61719 41.164062 C 427.05719 43.064062 429.20711 41.994141 430.53711 41.994141 C 460.19044 42.040807 489.83656 42.040807 519.47656 41.994141 C 521.86656 41.984141 523.22656 41.994609 523.22656 45.224609 C 523.06657 66.353307 523.06641 87.480681 523.06641 108.60938 A 78.84 78.84 0 0 0 509.44727 121.21289 A 154.71 154.71 0 0 0 494.78711 135.06445 L 493.53711 136.21289 L 464.63672 163.35352 C 460.63672 167.25352 456.72672 171.23367 452.63672 175.01367 A 2.35 2.35 0 0 0 452.12695 178.39453 C 456.14695 184.52453 460.01703 190.80312 464.70703 196.45312 C 465.23703 199.45312 466.70758 199.85437 469.01758 197.98438 C 470.39758 196.86437 471.61758 195.55453 473.01758 194.39453 C 480.41758 188.19453 487.63797 181.76453 494.91797 175.39453 C 500.04797 170.69453 506.18664 167.16352 510.55664 161.60352 C 515.65343 159.32495 518.0841 153.67085 523.27734 151.50781 C 523.27356 151.51296 523.2714 151.51829 523.26758 151.52344 C 523.22091 155.46344 523.17362 159.43359 523.12695 163.43359 C 522.50695 164.04359 521.89758 164.66344 521.26758 165.27344 C 514.60758 171.69344 506.61758 176.5943 500.26758 183.4043 C 487.79758 193.1443 475.47641 203.07297 463.81641 213.79297 A 179.31 179.31 0 0 0 444.58789 230.01367 C 439.46789 232.90367 435.58766 237.30367 431.09766 241.01367 C 423.53099 247.24034 415.92091 253.42445 408.26758 259.56445 C 406.03758 261.35445 406.18758 262.56391 408.26758 264.50391 A 138 138 0 0 1 418.64648 275.75391 C 425.71648 284.28391 432.75625 292.81328 440.90625 300.36328 C 446.55625 308.28328 453.55625 315.05328 459.90625 322.36328 C 464.48625 327.58328 464.68805 332.84367 459.74805 337.76367 A 80.73 80.73 0 0 1 453.91797 343.49414 C 450.91797 345.90414 451.43781 348.08297 453.50781 350.79297 C 458.50781 357.35297 463.36734 364.04359 468.27734 370.68359 A 30.93 30.93 0 0 0 470.11719 373.68359 C 476.64719 382.11359 482.73773 390.84344 488.92773 399.52344 C 491.92773 403.70344 494.45703 408.3432 498.45703 411.7832 C 501.94703 418.7232 507.17797 424.45336 511.66797 430.69336 C 515.29797 435.69336 518.41617 441.21438 523.07617 445.48438 C 523.17617 443.36437 523.37695 441.24281 523.37695 439.13281 L 523.37695 220.39453 C 523.36195 210.89453 523.32023 201.39875 523.27148 191.90625 C 523.32148 201.39685 523.36672 210.88846 523.38672 220.38281 L 523.38672 439.12305 C 523.38672 441.23305 523.18789 443.35461 523.08789 445.47461 C 523.10789 463.56461 523.01633 481.65414 523.23633 499.74414 C 523.27633 503.19414 522.37781 503.92383 519.00781 503.92383 C 489.21781 503.77383 459.41719 503.83398 429.61719 503.83398 L 426.41797 503.83398 C 425.72797 503.85398 424.66656 503.61359 424.72656 504.68359 A 2.33 2.33 0 0 0 425.95703 506.4043 C 433.72703 508.6243 435.62633 515.12297 437.23633 521.79297 C 439.03633 529.32297 434.31789 540.27297 427.83789 543.79297 C 426.80789 544.35297 424.62766 543.65414 425.09766 545.74414 C 425.40766 547.10414 427.09711 546.74414 428.28711 546.74414 C 472.38044 546.78414 516.46997 546.78414 560.55664 546.74414 C 565.12664 546.74414 566.94727 544.73281 566.94727 540.13281 L 566.94727 6.9335938 C 566.94727 1.1535938 565.90727 0.15429688 560.19727 0.15429688 C 517.32393 0.11429687 474.44641 0.11429688 431.56641 0.15429688 C 430.95641 0.15429688 430.28523 -0.015546875 429.61523 0.001953125 z M 313.9668 0.09375 C 312.5468 0.10375 311.11633 0.22328125 308.23633 0.36328125 C 315.36633 4.2332812 318.60766 9.4130469 319.34766 15.873047 C 320.30766 24.593047 319.98719 33.093828 312.11719 39.173828 C 311.45719 39.683828 310.3975 40.283203 310.6875 41.283203 C 311.1075 42.743203 312.48648 42.033203 313.39648 42.033203 C 320.39648 42.093203 327.39648 42.342891 334.39648 41.962891 C 338.60648 41.742891 339.89648 42.622891 339.89648 47.212891 C 339.80982 197.45955 339.76758 347.70336 339.76758 497.94336 C 339.76758 499.01336 339.70758 500.07281 339.76758 501.13281 C 339.86758 502.56281 339.15719 502.92383 337.86719 502.92383 C 322.32719 502.87383 306.83617 502.92305 291.32617 502.87305 C 289.89617 502.87305 288.21789 502.52305 287.83789 500.87305 A 4 4 0 0 1 288.83789 496.70312 A 40.93 40.93 0 0 0 294.83789 490.5332 C 305.10789 475.9432 310.20703 459.36375 311.20703 441.84375 A 262.84 262.84 0 0 0 310.77734 406.92383 A 120.17 120.17 0 0 0 304.41797 376.72461 A 361.18 361.18 0 0 0 276.81641 315.09375 C 267.46641 298.65375 258.46719 282.00383 249.36719 265.42383 C 236.31719 241.61383 222.97719 217.94453 210.36719 193.89453 C 203.16719 180.16453 196.03648 166.37375 189.89648 152.09375 C 184.69648 140.00375 182.33703 127.25383 181.20703 114.42383 C 180.37703 104.96383 180.34742 95.313125 182.60742 85.703125 A 50.14 50.14 0 0 1 202.00781 55.84375 C 213.90781 47.02375 227.86648 42.853203 242.39648 42.283203 C 258.66648 41.633203 274.94656 41.352891 291.22656 40.462891 C 299.29656 40.012891 304.82672 36.623047 308.13672 30.123047 C 312.71672 21.123047 310.74617 14.884141 304.82617 7.7441406 C 299.16617 0.94414063 290.77617 0.353125 282.82617 0.203125 A 327.86 327.86 0 0 0 224.17773 4.4238281 A 280.45 280.45 0 0 0 186.79688 12.873047 C 172.08687 17.363047 158.08797 23.664062 144.41797 30.664062 C 120.46797 42.944062 99.417656 59.252969 80.097656 77.792969 C 65.017656 92.272969 52.377578 108.76305 41.017578 126.37305 C 33.017578 138.75305 25.546328 151.35305 20.486328 165.12305 C 13.686328 183.55305 7.6563281 202.19344 4.4863281 221.77344 C 2.6663281 233.24344 0.73632812 244.74414 0.48632812 256.24414 C 0.016328125 275.85414 -0.81242184 295.52352 2.0175781 315.10352 A 257.62 257.62 0 0 0 8.9277344 349.32422 A 245.69 245.69 0 0 0 25.857422 392.88281 A 288.85 288.85 0 0 0 70.4375 456.64453 A 262.09 262.09 0 0 0 110.7168 492.45312 A 268.56 268.56 0 0 0 156.4668 519.45312 A 303 303 0 0 0 208.53711 537.85352 C 228.21711 542.83352 248.16734 544.18359 268.27734 544.93359 C 277.01734 545.26359 285.74711 544.71453 294.53711 545.64453 C 305.01711 546.75453 315.66633 546.27367 326.23633 546.51367 C 354.95633 547.19367 383.70727 546.77344 412.44727 546.77344 C 416.88727 546.78344 419.93656 544.71414 422.72656 541.49414 C 428.29656 535.07414 428.95617 527.42281 428.07617 519.63281 C 427.19617 512.31281 421.03727 502.95414 411.19727 503.74414 C 403.63727 504.33414 395.97648 503.55461 388.39648 503.97461 C 384.03648 504.22461 383.39648 502.65438 383.39648 498.73438 C 383.45648 355.78771 383.48633 212.84429 383.48633 69.904297 C 383.48633 62.144297 383.66625 54.382812 383.40625 46.632812 C 383.27625 42.912812 384.58672 41.943203 388.13672 42.033203 C 396.67672 42.263203 405.16773 41.943594 413.67773 42.183594 A 10.42 10.42 0 0 0 422.25781 38.183594 C 429.71781 28.923594 432.1768 17.993594 423.9668 6.1835938 C 421.1768 2.0935938 417.8468 0.09375 412.9668 0.09375 L 313.9668 0.09375 z M 136.14062 87.589844 A 5.36 5.36 0 0 1 138.22656 88.003906 C 139.81656 88.713906 139.42664 90.863828 139.30664 92.923828 A 148.09 148.09 0 0 0 139.50781 116.46289 A 219.54 219.54 0 0 0 143.2168 141.04297 C 147.2568 159.15297 155.79734 175.34383 164.02734 191.67383 C 173.71734 210.90383 184.49719 229.55406 194.86719 248.41406 C 204.05719 265.11406 213.54656 281.64438 222.47656 298.48438 C 230.16656 312.97437 238.32617 327.22469 246.32617 341.55469 C 246.81617 342.44469 246.18758 343.8032 247.51758 344.2832 C 247.51758 349.9132 247.93773 355.5743 247.42773 361.1543 C 246.82773 367.8143 246.69773 374.55375 244.92773 381.09375 C 240.92773 395.87375 231.29734 407.03375 221.52734 418.09375 C 213.26734 427.46375 203.15781 434.09289 191.75781 439.21289 C 179.21781 444.84289 166.12625 445.21453 152.90625 444.39453 C 143.26625 443.80453 133.90805 441.05344 124.49805 439.02344 C 115.81805 435.27344 107.56797 430.93422 100.16797 424.82422 C 97.40314 422.54672 95.624581 418.75712 91.601562 418.04688 C 80.604757 406.37857 72.005724 393.06149 63.607422 379.57422 A 21.86 21.86 0 0 1 62.076172 375.49414 C 61.650909 375.42282 61.308673 375.26515 61.017578 375.05664 C 61.293556 375.23991 61.617023 375.37782 62.007812 375.44336 C 61.787813 371.57336 61.006563 367.64352 61.476562 363.85352 C 62.116563 358.63352 62.126875 353.13445 66.796875 349.06445 C 72.856875 343.80445 79.817578 342.59281 87.017578 344.38281 C 91.157578 345.38281 96.626719 345.73398 98.386719 350.83398 C 99.386719 353.78398 101.02805 354.70305 103.74805 355.12305 C 106.46805 355.54305 108.3268 356.88344 107.9668 360.27344 C 107.5468 364.20344 104.76695 361.83344 103.12695 362.27344 C 101.48695 362.71344 98.797812 361.41289 98.007812 363.96289 C 97.317813 366.17289 98.148047 368.30383 99.748047 370.17383 C 103.15805 374.17383 107.36695 373.40352 111.62695 372.35352 C 114.49695 371.65352 116.62695 370.1543 117.12695 366.9043 C 117.46695 364.9043 118.37719 362.97461 118.86719 360.97461 C 120.25719 355.30461 118.86711 352.03422 114.03711 348.57422 A 14.17 14.17 0 0 1 110.45703 345.12305 C 109.45703 343.66305 107.45711 341.79305 109.78711 340.12305 C 111.54711 338.87305 113.3475 340.40352 114.1875 341.85352 A 7.91 7.91 0 0 0 121.56641 345.75391 A 25.58 25.58 0 0 1 136.42773 349.63281 C 142.83773 353.63281 148.99719 358.12281 149.11719 366.88281 L 149.11719 369.66406 C 149.28719 371.35406 147.63688 371.99414 147.04688 373.24414 C 144.65688 373.99414 142.21625 374.6132 139.90625 375.5332 C 138.28625 376.1832 136.43633 376.97422 136.23633 379.07422 C 136.03633 381.17422 137.79789 382.20328 139.08789 382.86328 C 145.28789 386.03328 151.81625 388.76328 158.90625 386.86328 C 164.16625 385.44328 170.44695 383.69391 171.37695 377.50391 C 172.50695 369.96391 173.05758 361.98344 168.26758 355.02344 C 165.92758 351.60344 162.26766 349.78383 158.84766 347.92383 C 157.47766 347.19383 156.84648 346.81367 157.39648 345.51367 A 2 2 0 0 1 160.39648 344.30469 A 42.46 42.46 0 0 1 164.39648 346.93359 C 165.24648 348.70359 166.15766 350.52469 167.84766 351.55469 C 174.84766 355.85469 181.98617 360.04344 189.07617 364.27344 L 194.50781 372.48438 C 193.91781 375.56437 193.0575 378.93305 196.9375 380.37305 C 199.4875 381.30305 202.08672 382.20422 205.13672 380.82422 C 209.36672 378.91422 210.74672 377.03391 208.13672 373.50391 C 206.00672 370.55391 205.13656 367.23398 203.72656 364.08398 A 25.86 25.86 0 0 0 198.24805 352.19336 C 194.33805 345.55336 188.93695 341.48414 180.87695 341.24414 A 10.32 10.32 0 0 1 173.6875 338.60352 A 13.25 13.25 0 0 0 171.89648 336.60352 C 163.89648 330.53352 154.64648 326.49359 145.89648 321.68359 A 26.1 26.1 0 0 0 130.40625 318.50391 C 127.78625 318.78391 125.40664 319.61406 124.55664 321.91406 A 6.81 6.81 0 0 0 126.73633 329.6543 A 18.84 18.84 0 0 0 128.97656 331.06445 A 1.86 1.86 0 0 1 129.61719 333.49414 C 129.12719 334.40414 128.0968 334.15367 127.2168 333.76367 C 124.0068 332.31367 120.56719 331.24281 117.61719 329.38281 C 97.087185 316.38281 76.807187 319.79375 56.617188 330.09375 C 53.260693 331.80686 50.113215 333.91596 46.876953 335.84961 C 45.133637 331.75991 44.724273 327.31727 44.1875 323.04297 C 41.8075 304.35297 40.5175 285.54461 41.4375 266.72461 C 42.2475 250.23461 43.127734 233.71336 46.677734 217.44336 A 195 195 0 0 1 71.876953 155.98438 C 77.546953 146.83437 82.956875 137.61297 89.546875 129.04297 C 96.946875 119.44297 105.91617 111.44336 114.82617 103.44336 C 120.41617 98.383363 126.70797 94.063281 132.41797 89.113281 A 5.36 5.36 0 0 1 136.14062 87.589844 z M 444.45508 232.65625 A 0.7 0.7 0 0 1 444.31641 232.84375 L 444.31641 232.81445 A 0.7 0.7 0 0 0 444.45508 232.65625 z M 441.91797 263.81445 C 442.08797 265.09445 442.19734 266.3743 442.27734 267.6543 C 442.17734 266.3743 442.08797 265.09445 441.91797 263.81445 z M 442.37695 271.50391 C 442.37695 272.79391 442.37711 274.06352 442.28711 275.35352 C 442.34711 274.06352 442.37695 272.78391 442.37695 271.50391 z M 84.25 347.5918 C 78.908308 347.54386 73.331797 350.53625 70.826172 355.05469 C 66.886172 362.22469 68.677344 368.91414 71.527344 375.49414 A 83.68 83.68 0 0 0 99.15625 410.57422 C 107.39625 416.48422 115.5068 422.79398 125.2168 426.33398 C 129.6768 430.26398 135.42633 431.33406 140.73633 433.41406 A 52.74 52.74 0 0 0 156.28711 434.32422 A 41.43 41.43 0 0 0 169.65625 433.48438 C 170.85625 433.25437 172.44625 433.04422 172.65625 431.32422 A 2 2 0 0 0 170.89648 429.06445 C 167.27648 428.35445 163.63781 427.71445 160.00781 427.06445 C 157.53781 425.39445 154.53789 425.33281 151.83789 424.38281 L 138.94727 417.94336 C 129.33727 412.04336 119.24617 406.94281 110.32617 399.88281 C 101.40617 392.82281 94.6775 384.41328 91.4375 373.61328 C 90.0375 368.95328 88.246875 363.15297 93.296875 359.54297 C 97.086875 356.84297 95.456172 354.75336 93.826172 352.44336 C 91.449609 349.07961 87.904842 347.62459 84.25 347.5918 z M 129.76562 352.24023 C 128.86109 352.21289 127.89992 352.42188 126.85742 352.98438 C 122.99742 355.07437 124.58703 358.75469 124.45703 361.80469 C 124.13703 369.58469 117.63703 376.6932 110.45703 377.0332 C 108.70703 377.1132 106.5375 375.76375 105.1875 378.09375 C 103.7275 380.61375 106.38695 381.6843 107.12695 383.4043 A 13.27 13.27 0 0 0 109.40625 386.16406 C 116.19625 394.41406 125.28687 399.53398 134.54688 404.33398 C 142.54688 408.46398 150.42641 412.76359 159.06641 415.43359 C 165.42296 418.5969 171.8894 421.48182 179.02148 422.63672 C 179.02027 422.63941 179.01879 422.64184 179.01758 422.64453 A 13.46 13.46 0 0 0 187.39648 424.2832 C 191.39648 424.6032 195.39656 424.79398 199.22656 423.08398 C 201.56656 422.03398 205.56656 421.78305 205.22656 418.87305 C 204.83656 415.63305 201.07672 414.73281 197.88672 414.38281 C 197.13672 414.30281 196.38672 414.3132 195.63672 414.2832 L 188.32617 412.46289 L 166.51758 404.29297 A 1.52 1.52 0 0 0 166.42773 404.34766 A 1.52 1.52 0 0 0 166.34375 404.40625 A 1.52 1.52 0 0 1 166.42773 404.34766 A 1.52 1.52 0 0 1 166.51758 404.29297 C 163.89758 403.07297 161.18797 401.99398 158.66797 400.58398 C 149.38797 395.39398 139.07742 391.91367 131.60742 383.76367 C 129.36742 381.33367 127.33773 378.76445 128.42773 375.56445 C 129.51773 372.36445 132.83711 371.93453 136.03711 371.39453 C 144.37711 370.01453 145.80781 367.73336 141.25781 359.69336 A 10 10 0 0 0 137.08789 355.58398 C 134.68789 354.51898 132.47922 352.32227 129.76562 352.24023 z M 255.78125 359.22461 C 256.77179 361.0793 257.69028 362.96762 258.57031 364.87305 C 257.69057 362.96764 256.77196 361.07967 255.78125 359.22461 z M 224.66602 365.93359 C 223.67367 366.01375 222.8143 366.75047 221.9668 367.04297 A 7.8 7.8 0 0 0 217.4375 376.59375 C 219.1175 381.11375 223.26742 383.13445 227.60742 381.56445 C 231.41742 380.38445 232.97742 377.56445 232.85742 373.81445 C 232.73742 369.81445 230.36625 367.70445 226.65625 366.81445 C 226.52625 366.33445 226.29703 365.98328 225.70703 366.11328 C 225.34203 365.95328 224.9968 365.90688 224.66602 365.93359 z M 259.48828 366.9043 C 261.86485 372.30722 263.87621 377.88301 265.70703 383.56445 C 266.9937 388.97779 268.27974 394.39445 269.56641 399.81445 C 272.21641 405.06445 271.43672 410.84375 271.63672 416.34375 C 271.90672 423.56375 270.9568 430.84375 270.4668 438.09375 C 270.4468 438.42375 269.91695 438.71344 269.62695 439.02344 C 268.88695 442.35677 268.18424 445.6901 267.51758 449.02344 C 267.51711 449.04118 267.51613 449.05844 267.51562 449.07617 A 86.1 86.1 0 0 1 235.16797 479.75391 C 225.49797 485.16391 214.6268 487.95344 203.7168 490.27344 C 200.3668 490.99344 196.8068 490.39422 193.7168 492.07422 C 200.8018 495.21422 207.88641 497.35102 214.97266 497.63477 C 207.87664 497.35574 200.78226 495.21854 193.6875 492.07422 L 184.89648 489.94336 C 197.73648 486.45336 210.54648 482.78422 222.39648 476.57422 A 144.47 144.47 0 0 0 259.59766 448.79297 C 261.00766 447.33297 262.95742 446.35297 264.10742 444.54297 L 269.62695 439.00391 C 269.91695 438.69391 270.4468 438.40422 270.4668 438.07422 C 270.9368 430.82422 271.88719 423.54422 271.61719 416.32422 C 271.41719 410.82422 272.19688 405.04297 269.54688 399.79297 C 267.08688 404.53297 264.17727 409.06328 262.94727 414.36328 C 258.81727 419.05328 255.11766 424.09305 251.09766 428.87305 A 116.72 116.72 0 0 1 223.17773 452.58398 A 180.07 180.07 0 0 1 194.83789 467.32422 C 191.20789 468.77422 187.39797 469.32289 183.66797 470.21289 C 179.50797 471.58289 174.98742 470.34461 170.85742 471.97461 C 162.91938 472.21455 155.13042 470.41477 147.23242 470.16406 L 134.49805 461.85352 C 134.49553 461.85146 134.49275 461.84971 134.49023 461.84766 C 140.24076 463.16545 146.17722 462.09742 151.89648 462.89453 A 81.86 81.86 0 0 0 192.86719 458.57422 C 211.19719 451.68422 227.26797 441.64352 239.41797 425.85352 C 244.41797 419.40352 250.21633 413.62297 253.98633 406.29297 C 260.04633 399.82297 262.9875 391.76297 265.6875 383.54297 C 263.86877 377.87421 261.86239 372.30447 259.48828 366.9043 z M 152.71094 474.29102 C 158.37344 478.10336 164.53648 481.03453 170.89648 483.64453 C 164.52297 481.05153 158.34937 478.10102 152.71094 474.29102 z " />
</svg>
